<svg width="20" height="20" viewBox="0 0 20 20" fill="none" xmlns="http://www.w3.org/2000/svg">
<g clip-path="url(#clip0_34_202)">
<g clip-path="url(#clip1_34_202)">
<path d="M19.1875 10.2266C19.1875 15.7539 15.4023 19.6875 9.8125 19.6875C4.45312 19.6875 0.125 15.3594 0.125 10C0.125 4.64062 4.45312 0.3125 9.8125 0.3125C12.4219 0.3125 14.6172 1.26953 16.3086 2.84766L13.6719 5.38281C10.2227 2.05469 3.80859 4.55469 3.80859 10C3.80859 13.3789 6.50781 16.1172 9.8125 16.1172C13.6484 16.1172 15.0859 13.3672 15.3125 11.9414H9.8125V8.60938H19.0352C19.125 9.10547 19.1875 9.58203 19.1875 10.2266Z" fill="black"/>
</g>
</g>
<defs>
<clipPath id="clip0_34_202">
<rect width="19.0625" height="20" fill="white" transform="translate(0.125)"/>
</clipPath>
<clipPath id="clip1_34_202">
<path d="M0.125 0H19.1875V20H0.125V0Z" fill="white"/>
</clipPath>
</defs>
</svg>
