<svg width="18" height="16" viewBox="0 0 18 16" fill="none" xmlns="http://www.w3.org/2000/svg">
<path d="M0 0H18V16H0V0Z" stroke="#E5E7EB"/>
<path d="M16.5 5V13C16.5 13.275 16.275 13.5 16 13.5H10C10 12.1187 8.88125 11 7.5 11H5.5C4.11875 11 3 12.1187 3 13.5H2C1.725 13.5 1.5 13.275 1.5 13V5H16.5ZM2 1C0.896875 1 0 1.89688 0 3V13C0 14.1031 0.896875 15 2 15H16C17.1031 15 18 14.1031 18 13V3C18 1.89688 17.1031 1 16 1H2ZM8.5 8C8.5 7.46957 8.28929 6.96086 7.91421 6.58579C7.53914 6.21071 7.03043 6 6.5 6C5.96957 6 5.46086 6.21071 5.08579 6.58579C4.71071 6.96086 4.5 7.46957 4.5 8C4.5 8.53043 4.71071 9.03914 5.08579 9.41421C5.46086 9.78929 5.96957 10 6.5 10C7.03043 10 7.53914 9.78929 7.91421 9.41421C8.28929 9.03914 8.5 8.53043 8.5 8ZM11.75 6.5C11.3344 6.5 11 6.83437 11 7.25C11 7.66563 11.3344 8 11.75 8H14.25C14.6656 8 15 7.66563 15 7.25C15 6.83437 14.6656 6.5 14.25 6.5H11.75ZM11.75 9.5C11.3344 9.5 11 9.83438 11 10.25C11 10.6656 11.3344 11 11.75 11H14.25C14.6656 11 15 10.6656 15 10.25C15 9.83438 14.6656 9.5 14.25 9.5H11.75Z" fill="black"/>
</svg>
