<svg width="21" height="20" viewBox="0 0 21 20" fill="none" xmlns="http://www.w3.org/2000/svg">
<g clip-path="url(#clip0_34_211)">
<path d="M10.3281 0.3125C4.97785 0.3125 0.640625 4.64973 0.640625 10C0.640625 15.3503 4.97785 19.6875 10.3281 19.6875C15.6784 19.6875 20.0156 15.3503 20.0156 10C20.0156 4.64973 15.6784 0.3125 10.3281 0.3125ZM14.8184 6.90078C14.6727 8.43262 14.0418 12.1499 13.7208 13.8656C13.585 14.5916 13.3176 14.835 13.0588 14.8588C12.4963 14.9106 12.069 14.487 11.5241 14.1298C10.6715 13.5709 10.1898 13.223 9.36215 12.6776C8.4057 12.0473 9.02574 11.7011 9.57082 11.1346C9.71348 10.9865 12.1922 8.73191 12.2402 8.52738C12.2461 8.5018 12.2519 8.40629 12.1951 8.35613C12.1383 8.30598 12.0548 8.32297 11.9945 8.3366C11.909 8.35603 10.5469 9.25632 7.90824 11.0375C7.52165 11.3029 7.17147 11.4323 6.8577 11.4255C6.5118 11.418 5.84645 11.23 5.3518 11.0691C4.74512 10.872 4.26293 10.7677 4.30492 10.4328C4.3268 10.2583 4.56703 10.0799 5.02562 9.89762C7.84974 8.6672 9.73292 7.856 10.6752 7.46402C13.3655 6.345 13.9245 6.15062 14.2889 6.14414C14.369 6.14281 14.5482 6.16266 14.6643 6.25684C14.7415 6.32393 14.7907 6.41755 14.8021 6.51918C14.8218 6.64537 14.8273 6.77337 14.8184 6.90078Z" fill="black"/>
</g>
<defs>
<clipPath id="clip0_34_211">
<path d="M0.640625 0H20.0156V20H0.640625V0Z" fill="white"/>
</clipPath>
</defs>
</svg>
