<svg width="18" height="20" viewBox="0 0 18 20" fill="none" xmlns="http://www.w3.org/2000/svg">
<g clip-path="url(#clip0_34_206)">
<g clip-path="url(#clip1_34_206)">
<path d="M1.46448 2.48011C0.234375 3.71021 0.234375 5.69027 0.234375 9.65V10.35C0.234375 14.3097 0.234375 16.2898 1.46448 17.5199C2.69458 18.75 4.67465 18.75 8.63437 18.75H9.33438C13.2941 18.75 15.2742 18.75 16.5043 17.5199C17.7344 16.2898 17.7344 14.3097 17.7344 10.35V9.65C17.7344 5.69027 17.7344 3.71021 16.5043 2.48011C15.2742 1.25 13.2941 1.25 9.33438 1.25H8.63437C4.67465 1.25 2.69458 1.25 1.46448 2.48011ZM3.1875 6.57293H5.18543C5.25105 9.9125 6.72395 11.3271 7.89062 11.6187V6.57293H9.77188V9.45312C10.9239 9.32918 12.1344 8.01668 12.5427 6.57293H14.4239C14.27 7.32168 13.9633 8.03059 13.5229 8.65543C13.0825 9.28023 12.518 9.80746 11.8646 10.2042C12.5941 10.5664 13.2386 11.0793 13.7552 11.709C14.2718 12.3388 14.6488 13.071 14.8614 13.8573H12.7906C12.5998 13.1743 12.2115 12.5629 11.6744 12.0998C11.1374 11.6367 10.4755 11.3425 9.77188 11.2542V13.8573H9.54582C5.5573 13.8573 3.28229 11.1229 3.1875 6.57293Z" fill="black"/>
</g>
</g>
<defs>
<clipPath id="clip0_34_206">
<rect width="17.5" height="20" fill="white" transform="translate(0.234375)"/>
</clipPath>
<clipPath id="clip1_34_206">
<path d="M0.234375 0H17.7344V20H0.234375V0Z" fill="white"/>
</clipPath>
</defs>
</svg>
